<svg width="27" height="32" viewBox="0 0 27 32" fill="none" xmlns="http://www.w3.org/2000/svg">
<path d="M13.3402 10C16.3079 10 18.7116 7.7625 18.7116 5C18.7116 2.2375 16.3079 0 13.3402 0C10.3725 0 7.96878 2.2375 7.96878 5C7.96878 7.7625 10.3725 10 13.3402 10ZM9.75478 25.55L11.4736 23.55L7.34435 20.35L4.2625 23.9375C3.49707 24.825 3.47693 26.0875 4.20878 27L7.43164 31C7.96207 31.6562 8.76778 32 9.58021 32C10.1375 32 10.7082 31.8375 11.1916 31.5C12.3801 30.675 12.6151 29.1063 11.7288 28L9.75478 25.55ZM19.3361 20.35L15.2068 23.55L16.9256 25.55L14.9516 28C14.0654 29.1063 14.3004 30.675 15.4888 31.5C15.9722 31.8375 16.5362 32 17.1002 32C17.9194 32 18.7251 31.6562 19.2488 31L22.4716 27C23.2035 26.0875 23.1834 24.825 22.4179 23.9375L19.3361 20.35ZM25.7415 9.0625C24.8888 7.93125 23.2169 7.6625 22.0016 8.45L19.2756 10.2312C15.7372 12.5437 10.9365 12.5437 7.40478 10.2312L4.67878 8.45625C3.4635 7.6625 1.79164 7.9375 0.938926 9.0625C0.0862114 10.1938 0.38164 11.75 1.59021 12.5437L4.31621 14.325C5.45764 15.0687 6.69307 15.6313 7.96878 16.0688V18H18.7116V16.075C19.9874 15.6375 21.2228 15.075 22.3642 14.3313L25.0902 12.55C26.3055 11.75 26.5942 10.1938 25.7415 9.0625Z" fill="#939598"/>
</svg>
