<svg width="29" height="34" viewBox="0 0 29 34" fill="none" xmlns="http://www.w3.org/2000/svg">
<path d="M9.10552 4.78125C9.10552 2.14061 11.4502 0 14.3427 0C17.2351 0 19.5798 2.14061 19.5798 4.78125C19.5798 7.42183 17.2351 9.5625 14.3427 9.5625C11.4502 9.5625 9.10552 7.42183 9.10552 4.78125ZM27.6266 4.87243C26.7177 4.04255 25.2439 4.04255 24.3349 4.87243L18.0338 10.625H10.6515L4.3504 4.87243C3.44147 4.04255 1.96765 4.04255 1.05871 4.87243C0.149701 5.7023 0.149701 7.04776 1.05871 7.87764L7.94171 14.1614V31.875C7.94171 33.0486 8.98383 34 10.2693 34H11.4331C12.7186 34 13.7608 33.0486 13.7608 31.875V24.4375H14.9246V31.875C14.9246 33.0486 15.9667 34 17.2522 34H18.416C19.7015 34 20.7436 33.0486 20.7436 31.875V14.1614L27.6266 7.87757C28.5356 7.0477 28.5356 5.7023 27.6266 4.87243Z" fill="#939598"/>
</svg>
