<svg width="200" height="64" viewBox="0 0 200 64" fill="none" xmlns="http://www.w3.org/2000/svg">
<mask id="mask0" mask-type="alpha" maskUnits="userSpaceOnUse" x="0" y="0" width="200" height="64">
<path d="M199.092 0.507812H0V63.0702H194.092C196.853 63.0702 199.092 60.8316 199.092 58.0702V0.507812Z" fill="#EC2029"/>
</mask>
<g mask="url(#mask0)">
<g opacity="0.5" filter="url(#filter0_f)">
<path d="M197.205 -7.41187C175.187 56.208 124.566 60.0901 103.333 64.6862L200.115 73.1912C200.803 49.1417 208.912 -8.33854 197.205 -7.41187Z" fill="#7D0304"/>
</g>
<path d="M159.753 66.2035H203.612V28.4944C196.82 37.2598 172.523 60.8011 159.753 66.2035Z" fill="url(#paint0_linear)"/>
<g filter="url(#filter1_d)">
<path d="M203.576 -12.0044C194.998 18.5493 180.948 42.6273 144.424 58.0114C162.511 59.9076 175.863 56.8308 183.587 52.0009C189.836 48.0654 199.229 34.1839 203.615 30.1411V28.4595L203.576 -12.0044Z" fill="url(#paint1_linear)"/>
</g>
<g filter="url(#filter2_d)">
<path d="M87.1333 66.2039H175.085C175.085 66.2039 198.839 47.3493 203.613 32.144V22.5916C153.97 70.2825 87.1333 66.2039 87.1333 66.2039Z" fill="#FFF200"/>
</g>
</g>
<defs>
<filter id="filter0_f" x="98.333" y="-12.423" width="110.156" height="90.6141" filterUnits="userSpaceOnUse" color-interpolation-filters="sRGB">
<feFlood flood-opacity="0" result="BackgroundImageFix"/>
<feBlend mode="normal" in="SourceGraphic" in2="BackgroundImageFix" result="shape"/>
<feGaussianBlur stdDeviation="2.5" result="effect1_foregroundBlur"/>
</filter>
<filter id="filter1_d" x="143.424" y="-15.0044" width="65.1906" height="76.5827" filterUnits="userSpaceOnUse" color-interpolation-filters="sRGB">
<feFlood flood-opacity="0" result="BackgroundImageFix"/>
<feColorMatrix in="SourceAlpha" type="matrix" values="0 0 0 0 0 0 0 0 0 0 0 0 0 0 0 0 0 0 127 0"/>
<feOffset dx="2"/>
<feGaussianBlur stdDeviation="1.5"/>
<feColorMatrix type="matrix" values="0 0 0 0 1 0 0 0 0 0.420111 0 0 0 0 0.0939239 0 0 0 0.3 0"/>
<feBlend mode="normal" in2="BackgroundImageFix" result="effect1_dropShadow"/>
<feBlend mode="normal" in="SourceGraphic" in2="effect1_dropShadow" result="shape"/>
</filter>
<filter id="filter2_d" x="84.1333" y="19.5916" width="122.479" height="49.6993" filterUnits="userSpaceOnUse" color-interpolation-filters="sRGB">
<feFlood flood-opacity="0" result="BackgroundImageFix"/>
<feColorMatrix in="SourceAlpha" type="matrix" values="0 0 0 0 0 0 0 0 0 0 0 0 0 0 0 0 0 0 127 0"/>
<feOffset/>
<feGaussianBlur stdDeviation="1.5"/>
<feColorMatrix type="matrix" values="0 0 0 0 1 0 0 0 0 0.419608 0 0 0 0 0.0941176 0 0 0 0.6 0"/>
<feBlend mode="normal" in2="BackgroundImageFix" result="effect1_dropShadow"/>
<feBlend mode="normal" in="SourceGraphic" in2="effect1_dropShadow" result="shape"/>
</filter>
<linearGradient id="paint0_linear" x1="159.499" y1="54.728" x2="203.139" y2="42.5885" gradientUnits="userSpaceOnUse">
<stop offset="0.3" stop-color="#FFDD00"/>
<stop offset="0.4566" stop-color="#FFDA00"/>
<stop offset="0.6189" stop-color="#FFD100"/>
<stop offset="0.7838" stop-color="#FFC30D"/>
<stop offset="0.9495" stop-color="#FBAD18"/>
<stop offset="1" stop-color="#FAA61A"/>
</linearGradient>
<linearGradient id="paint1_linear" x1="160.63" y1="49.5153" x2="208.136" y2="48.2882" gradientUnits="userSpaceOnUse">
<stop offset="0.08" stop-color="#FAA61A"/>
<stop offset="0.0934882" stop-color="#FBA919"/>
<stop offset="1" stop-color="#FFDD00"/>
</linearGradient>
</defs>
</svg>
