<svg width="25" height="25" viewBox="0 0 25 25" fill="none" xmlns="http://www.w3.org/2000/svg">
<circle cx="12" cy="12" r="12" fill="white"/>
<path fill-rule="evenodd" clip-rule="evenodd" d="M12.05 0C5.4 0 0 5.4 0 12.05C0 18.7 5.4 24.1 12.05 24.1C18.7 24.1 24.1 18.7 24.1 12.05C24.1 5.4 18.7 0 12.05 0ZM12.05 22.29C11.45 22.29 10.88 22.22 10.27 22.12L10.77 19.07C11.17 19.14 11.58 19.17 12.01 19.17C15.97 19.17 19.19 15.95 19.19 11.99C19.19 8.03 15.97 4.81 12.01 4.81C8.05 4.81 4.83 8.03 4.83 11.99C4.83 14.31 5.94 16.35 7.62 17.66L5.64 20.04C3.26 18.16 1.71 15.24 1.71 11.98C1.71 6.31 6.31 1.71 11.98 1.71C17.65 1.71 22.25 6.31 22.25 11.98C22.25 17.66 17.72 22.29 12.05 22.29ZM10.17 14.67C9.33 14.1 8.79 13.13 8.79 12.05C8.79 10.27 10.23 8.83 12.01 8.83C13.79 8.83 15.23 10.27 15.23 12.05C15.23 13.83 13.79 15.27 12.01 15.27C11.81 15.27 11.61 15.24 11.44 15.2L11.88 12.55L10.17 14.67ZM12.05 16.04C13.86 16.04 15.41 14.83 15.88 13.19C15.95 13.29 16.08 13.36 16.22 13.36C16.46 13.36 16.69 13.16 16.69 12.89C16.69 12.62 16.49 12.42 16.22 12.42C16.15 12.42 16.09 12.45 16.02 12.49C16.05 12.32 16.05 12.19 16.05 12.02C16.05 9.8 14.24 8.03 12.06 8.03C9.88 8.03 8.07 9.84 8.07 12.02C8.07 13.36 8.71 14.54 9.71 15.24L8.33 16.92C6.85 15.78 5.91 14 5.91 12.02C5.91 11.42 6.01 10.81 6.18 10.24C6.25 10.27 6.31 10.31 6.38 10.31C6.62 10.31 6.85 10.11 6.85 9.84C6.85 9.64 6.72 9.47 6.51 9.4C7.48 7.29 9.63 5.84 12.12 5.84C15.51 5.84 18.3 8.63 18.3 12.02C18.3 14.54 16.79 16.72 14.61 17.69C14.58 17.49 14.38 17.32 14.17 17.32C13.94 17.32 13.7 17.52 13.7 17.79C13.7 17.86 13.73 17.96 13.77 18.02C13.23 18.15 12.7 18.25 12.13 18.25C11.76 18.25 11.39 18.22 11.06 18.15L11.43 16C11.58 16.01 11.82 16.04 12.05 16.04ZM6.14 18.63C6.14 18.37 5.93 18.16 5.67 18.16C5.41 18.16 5.2 18.37 5.2 18.63C5.2 18.89 5.41 19.1 5.67 19.1C5.93 19.1 6.14 18.89 6.14 18.63ZM12.52 12.12C12.52 11.86 12.31 11.65 12.05 11.65C11.79 11.65 11.58 11.86 11.58 12.12C11.58 12.38 11.79 12.59 12.05 12.59C12.31 12.59 12.52 12.38 12.52 12.12ZM16.15 3.96C16.15 3.7 15.94 3.49 15.68 3.49C15.42 3.49 15.21 3.7 15.21 3.96C15.21 4.22 15.42 4.43 15.68 4.43C15.93 4.43 16.15 4.22 16.15 3.96ZM8.09 9.7C8.09 9.44 7.88 9.23 7.62 9.23C7.36 9.23 7.15 9.44 7.15 9.7C7.15 9.96 7.36 10.17 7.62 10.17C7.88 10.17 8.09 9.96 8.09 9.7Z" fill="#0980EE"/>
</svg>
