<svg width="19" height="45" viewBox="0 0 19 45" fill="none" xmlns="http://www.w3.org/2000/svg">
<path d="M9.13143 0C10.5153 0 11.8425 0.526784 12.8211 1.46447C13.7996 2.40215 14.3494 3.67392 14.3494 5C14.3494 6.32608 13.7996 7.59785 12.8211 8.53553C11.8425 9.47322 10.5153 10 9.13143 10C7.74754 10 6.42033 9.47322 5.44178 8.53553C4.46322 7.59785 3.91347 6.32608 3.91347 5C3.91347 3.67392 4.46322 2.40215 5.44178 1.46447C6.42033 0.526784 7.74754 0 9.13143 0ZM5.21796 12.5H13.0449C14.4288 12.5 15.756 13.0268 16.7346 13.9645C17.7131 14.9021 18.2629 16.1739 18.2629 17.5V31.25H14.3494V45H3.91347V31.25H0V17.5C0 16.1739 0.549749 14.9021 1.52831 13.9645C2.50686 13.0268 3.83407 12.5 5.21796 12.5Z" fill="#939598"/>
</svg>
