<svg width="44" height="38" viewBox="0 0 44 38" fill="none" xmlns="http://www.w3.org/2000/svg">
<path d="M0 18.7288C0.0138725 18.3741 0.031213 18.0193 0.0381493 17.6611C0.058958 16.1319 0.0797667 14.5992 0.100575 13.07C0.100575 13.0183 0.100575 12.9666 0.107512 12.915C0.176874 12.3191 1.19303 11.3444 1.79302 11.3341C3.68661 11.2962 5.57673 11.2549 7.47032 11.2514C12.0066 11.2411 16.5394 11.248 21.0757 11.248C21.1694 11.248 21.2665 11.248 21.3948 11.248C21.0307 7.60745 22.2168 4.58687 25.0225 2.24481C26.8016 0.753464 28.8859 -0.0214832 31.2269 -0.000817959C34.2234 0.0267357 36.7031 1.22532 38.6764 3.43995C40.6567 5.66147 41.3989 8.28596 41.0486 11.2549C41.3573 11.2549 41.6174 11.2514 41.8775 11.2549C42.585 11.2686 43.0671 11.6751 43.5041 12.1641C43.7954 12.4913 43.9133 12.8564 43.9237 13.3007C44.0485 20.3373 44.0104 27.3738 43.9549 34.4137C43.9514 35.0234 43.9237 35.633 43.9133 36.2426C43.9064 36.5974 43.6913 36.8488 43.4798 37.1002C43.3584 37.2414 43.2266 37.3758 43.0844 37.4929C42.8139 37.7202 42.5399 37.9062 42.1515 37.9096C39.7411 37.9234 37.3343 37.9716 34.9239 37.982C30.3946 37.9992 25.8687 38.0026 21.3393 37.9992C16.3487 37.9957 11.3546 37.9854 6.36399 37.9682C4.89698 37.9647 3.42997 37.9165 1.96295 37.9131C1.55718 37.9131 1.24159 37.7615 0.953732 37.5101C0.797667 37.3723 0.652006 37.2242 0.509813 37.0692C0.225428 36.7627 0.0936392 36.4114 0.0936392 35.9809C0.0936392 34.3828 0.0624261 32.7846 0.0381493 31.19C0.0346812 30.9592 0.0173406 30.7319 0.00346812 30.5011C0 26.5747 0 22.6518 0 18.7288ZM7.09923 36.5974C16.8065 36.5974 26.4929 36.5974 36.162 36.5974C36.162 30.5149 36.162 24.4496 36.162 18.3741C36.0996 18.3844 36.0788 18.3878 36.058 18.3947C35.8499 18.4912 35.6384 18.591 35.4303 18.6909C33.606 19.5554 31.6951 19.8378 29.694 19.5382C28.6813 19.3867 27.7276 19.056 26.7981 18.6358C26.6802 18.5842 26.5207 18.5669 26.3993 18.5979C24.9219 18.9561 23.4445 19.3247 21.9705 19.6863C21.6549 19.7621 21.3359 19.8275 20.9821 19.9067C21.0272 19.7552 21.0549 19.6484 21.0896 19.5451C21.6133 18.0882 22.137 16.6278 22.6641 15.1709C22.7127 15.0366 22.7127 14.9264 22.6503 14.7955C22.3589 14.1549 22.0711 13.5108 21.8075 12.8564C21.7347 12.6808 21.6584 12.6222 21.4746 12.6222C16.7753 12.6257 12.076 12.6257 7.37668 12.6257C7.28998 12.6257 7.19981 12.636 7.1027 12.6429C7.09923 20.6335 7.09923 28.6068 7.09923 36.5974ZM23.1774 17.9194C23.278 17.9056 23.3196 17.9022 23.3647 17.8953C24.3531 17.6645 25.3415 17.4441 26.323 17.1961C26.6351 17.1169 26.8952 17.1272 27.19 17.2822C28.938 18.2053 30.7934 18.5084 32.746 18.164C34.9655 17.7713 36.769 16.6864 38.1007 14.8816C39.5677 12.8909 40.0394 10.6487 39.6024 8.23429C39.266 6.36409 38.3816 4.76597 36.9389 3.50883C34.7748 1.62485 32.25 1.03245 29.4408 1.55941C25.6086 2.26892 22.1959 5.92667 22.7717 10.8588C22.9277 12.2089 23.3647 13.4592 24.1762 14.5648C24.2733 14.6956 24.2699 14.8024 24.2179 14.9505C23.9127 15.7771 23.6144 16.6106 23.3196 17.4407C23.2676 17.5819 23.2329 17.7334 23.1774 17.9194ZM5.70158 24.615C5.70158 23.6644 5.70158 22.7138 5.70158 21.7597C5.70158 18.8011 5.70158 15.846 5.70505 12.8874C5.70505 12.729 5.69465 12.6222 5.48309 12.6257C4.33861 12.6429 3.19414 12.6429 2.04966 12.6601C1.65082 12.667 1.49823 12.8185 1.48089 13.2181C1.46008 13.6934 1.4358 14.1687 1.4358 14.644C1.42886 17.5716 1.4254 20.4991 1.4254 23.4267C1.4254 27.2911 1.43233 31.1555 1.44274 35.0199C1.44274 35.4057 1.46701 35.7914 1.50863 36.1772C1.53638 36.4458 1.66816 36.5492 1.93868 36.5698C2.18491 36.5905 2.43115 36.6077 2.67739 36.6112C3.58256 36.618 4.48774 36.6146 5.39292 36.6146C5.70505 36.6146 5.70505 36.6146 5.70505 36.2977C5.70158 32.4023 5.70158 28.5069 5.70158 24.615ZM42.5677 25.2384C42.5364 25.2349 42.5087 25.228 42.4775 25.2246C42.0301 26.2889 41.3053 27.0156 40.0776 27.0087C38.8533 27.0018 38.1319 26.2785 37.7123 25.1867C37.6915 25.1936 37.6707 25.2039 37.6499 25.2108C37.6499 29.0063 37.6499 32.7984 37.6499 36.6112C38.3886 36.6112 39.1377 36.618 39.8833 36.6112C40.5943 36.6043 41.3053 36.5905 42.0128 36.5698C42.37 36.5595 42.5052 36.4114 42.5295 36.0601C42.5434 35.8465 42.5677 35.6296 42.5677 35.416C42.5677 32.5263 42.5642 29.6366 42.5642 26.7469C42.5677 26.2441 42.5677 25.7412 42.5677 25.2384ZM42.5087 24.0949C42.5226 23.9778 42.5295 23.9399 42.5295 23.8986C42.5434 23.3062 42.5677 22.7103 42.5677 22.1179C42.5746 19.5038 42.5746 16.8896 42.5746 14.272C42.5746 13.9 42.5503 13.5315 42.5295 13.1595C42.5122 12.8461 42.3492 12.6773 42.0405 12.6601C41.659 12.6394 41.2775 12.6429 40.896 12.6291C40.7608 12.6257 40.7018 12.6773 40.6533 12.8013C40.5111 13.1767 40.3654 13.5487 40.1955 13.9104C39.6094 15.1675 38.7423 16.2214 37.7609 17.1927C37.6776 17.2754 37.6083 17.42 37.6083 17.5337C37.6048 19.397 37.6117 21.2637 37.6221 23.1271C37.6221 23.4267 37.6499 23.7264 37.6637 24.026C38.1319 22.9617 38.8637 22.235 40.0776 22.2247C41.3053 22.2212 42.0474 22.9514 42.5087 24.0949ZM40.0914 25.693C40.6394 25.7791 41.1908 25.1936 41.1943 24.6287C41.1943 24.0708 40.6741 23.5404 40.1053 23.5369C39.5088 23.5335 39.0059 24.1018 39.0024 24.6184C38.9955 25.1729 39.5504 25.7757 40.0914 25.693Z" fill="url(#paint0_linear)"/>
<path d="M27.8138 13.6873C30.6923 11.0524 33.5431 8.43829 36.4182 5.80347C36.6922 6.11689 36.9557 6.41998 37.2193 6.71963C37.3199 6.83329 37.2228 6.89184 37.1534 6.95728C36.5534 7.51868 35.9569 8.08009 35.3535 8.63461C33.4113 10.4222 31.4657 12.2097 29.5236 13.9938C28.9617 14.507 28.3999 15.0202 27.8381 15.5334C27.6057 15.7469 27.5606 15.7503 27.3733 15.4851C26.9641 14.91 26.5618 14.3279 26.1664 13.7424C25.5873 12.8848 25.022 12.0203 24.4462 11.1627C24.3353 11.0008 24.3422 10.8975 24.5121 10.7872C24.7514 10.6357 24.9803 10.4704 25.2092 10.2982C25.3549 10.1879 25.4451 10.2052 25.5491 10.3602C26.2254 11.3659 26.9121 12.3647 27.5953 13.367C27.6577 13.4668 27.7271 13.5633 27.8138 13.6873Z" fill="url(#paint1_linear)"/>
<path d="M4.24531 28.1186C3.78405 28.1186 3.34013 28.1186 2.87193 28.1186C2.865 28.0393 2.85112 27.9601 2.85112 27.8809C2.85112 26.6479 2.85459 25.4149 2.84766 24.1818C2.84766 23.9752 2.91355 23.9132 3.11817 23.9201C3.48926 23.9338 3.86381 23.9235 4.24531 23.9235C4.24531 25.3322 4.24531 26.7133 4.24531 28.1186Z" fill="url(#paint2_linear)"/>
<path d="M4.24824 21.1234C4.24824 21.578 4.24824 22.0223 4.24824 22.5045C3.92917 22.5045 3.6101 22.5045 3.2945 22.5045C2.85059 22.5045 2.85059 22.5045 2.85059 22.074C2.85059 21.764 2.85059 21.4541 2.85059 21.1269C3.32572 21.1234 3.77311 21.1234 4.24824 21.1234Z" fill="url(#paint3_linear)"/>
<path fill-rule="evenodd" clip-rule="evenodd" d="M8.54779 27.4541L8.5525 27.5124L8.64379 27.5014C8.75335 27.4881 8.8554 27.4758 8.96173 27.4676L8.96179 27.4676L8.96185 27.4676L8.9619 27.4676L8.96195 27.4676L8.96201 27.4676C9.9538 27.3402 10.9456 27.2128 11.9374 27.0888L11.9376 27.0887C12.5895 27.0061 13.2415 26.9234 13.8934 26.8477C14.1917 26.8132 14.1986 26.8201 14.1986 27.1129C14.1997 27.323 14.2001 27.5334 14.2005 27.744V27.7442V27.7443C14.2013 28.1655 14.2021 28.5871 14.209 29.0072C14.209 29.1691 14.15 29.2655 14.0252 29.3551C13.6113 29.6582 13.2005 29.9643 12.7897 30.2705L12.7887 30.2713L12.7881 30.2717L12.7877 30.272C12.583 30.4245 12.3783 30.5771 12.1732 30.7293C12.0947 30.7878 12.0076 30.842 11.9204 30.8962C11.7151 31.0239 11.5097 31.1517 11.4172 31.3355C11.3205 31.5299 11.339 31.7789 11.3574 32.0271C11.3647 32.1262 11.3721 32.2252 11.3721 32.3205C11.3744 32.6273 11.3798 32.9326 11.3851 33.2384L11.3851 33.2384L11.3851 33.2384L11.3851 33.2385L11.3851 33.2385C11.3878 33.3927 11.3906 33.547 11.3929 33.7017C11.3964 33.8773 11.4588 33.9428 11.6565 33.8911C12.3397 33.7085 13.0264 33.5398 13.7165 33.3745C13.8299 33.3469 13.9436 33.3164 14.0574 33.2859L14.0574 33.2858C14.3996 33.1939 14.7438 33.1015 15.0899 33.0886C15.8835 33.058 16.6751 33.0652 17.4677 33.0723H17.4677H17.4678H17.4678H17.4679C17.7456 33.0748 18.0233 33.0774 18.3014 33.0783C18.4089 33.0783 18.5233 33.092 18.6308 33.1196C19.2289 33.2659 19.8245 33.4146 20.4217 33.5637L20.4218 33.5638L20.4219 33.5638L20.4221 33.5638L20.4222 33.5639L20.7811 33.6534C21.1452 33.7438 21.5093 33.8312 21.8963 33.9241L21.9741 33.9428C21.9769 33.8835 21.9808 33.8297 21.9844 33.779L21.9844 33.779C21.9899 33.7031 21.9949 33.6341 21.9949 33.5639C21.9962 33.3082 21.9961 33.052 21.9959 32.7957C21.9956 32.3684 21.9953 31.9408 22.0019 31.5146C22.0053 31.3699 21.9568 31.2873 21.8423 31.2046C21.4281 30.8999 21.0155 30.5927 20.603 30.2854L20.6029 30.2853L20.6028 30.2853L20.6028 30.2852L20.6025 30.285L20.6019 30.2846C20.1894 29.9773 19.7769 29.6701 19.3626 29.3654C19.2239 29.2621 19.158 29.1587 19.1615 28.9796C19.1689 28.5223 19.1675 28.0667 19.1661 27.6103V27.6102V27.6102V27.6101V27.61L19.1661 27.6095C19.1655 27.4269 19.1649 27.2442 19.1649 27.0612V26.8098C20.3323 26.9539 21.4891 27.098 22.6459 27.2421L22.6524 27.2429L22.6524 27.2429L22.6524 27.2429L22.6524 27.243C23.3734 27.3328 24.0944 27.4226 24.818 27.5124C24.8194 27.4728 24.8214 27.4373 24.8233 27.4042C24.826 27.3566 24.8284 27.314 24.8284 27.2713C24.8284 26.97 24.8282 26.6686 24.8279 26.3673C24.8273 25.4633 24.8266 24.5599 24.8318 23.6583C24.8318 23.4896 24.7798 23.4172 24.6203 23.3587C23.7446 23.0384 22.8706 22.7155 21.9967 22.3926C21.1227 22.0697 20.2487 21.7468 19.373 21.4265C19.2135 21.3679 19.1615 21.2956 19.1615 21.1268C19.1511 19.6977 19.1337 18.272 19.1164 16.8463L19.1164 16.8457C19.1164 16.7665 19.1129 16.6735 19.0782 16.608L19.0303 16.5173C18.9078 16.2847 18.7843 16.0502 18.6308 15.84C17.8956 14.8377 16.4321 14.3796 15.2598 15.3061C14.5801 15.8434 14.2402 16.5323 14.2437 17.4105C14.2457 18.1244 14.2349 18.8382 14.2241 19.5521C14.2163 20.0713 14.2084 20.5904 14.2055 21.1096C14.2055 21.2991 14.1396 21.3748 13.9662 21.4368C12.9216 21.8191 11.877 22.2052 10.8324 22.5912L10.8323 22.5912C10.136 22.8486 9.43961 23.1059 8.74324 23.3621C8.60105 23.4172 8.53516 23.4723 8.53516 23.6411C8.54036 24.5529 8.53971 25.4667 8.53906 26.3809V26.3809V26.381V26.3811V26.3812V26.3812C8.53884 26.6859 8.53862 26.9907 8.53862 27.2954C8.53862 27.3431 8.54273 27.3929 8.54779 27.4541ZM17.7499 31.6626V31.6627H15.6171V31.6626H17.7499ZM17.7499 31.5049V31.3734C17.7499 30.1782 17.7499 28.9796 17.7465 27.7845C17.7361 24.1509 17.7222 20.5207 17.7049 16.887C17.7049 16.7975 17.6945 16.6804 17.6424 16.6184C17.3961 16.3293 17.0963 16.1785 16.7558 16.1544C17.096 16.1788 17.3935 16.3296 17.6394 16.6183C17.6914 16.6803 17.7018 16.7939 17.7018 16.8869C17.7192 20.5206 17.733 24.1508 17.7435 27.7844C17.7469 28.9795 17.7469 30.1781 17.7469 31.3733C17.7486 31.4159 17.7495 31.4585 17.7499 31.5049ZM10.0004 25.9539C9.97811 25.9531 9.95359 25.9522 9.92587 25.9522C9.92587 25.8258 9.92565 25.7002 9.92543 25.5754V25.5753C9.92478 25.2036 9.92415 24.8381 9.92934 24.4746C9.92934 24.4502 9.9497 24.4197 9.97746 24.3928C9.95155 24.4188 9.93291 24.4478 9.93291 24.4711C9.9246 24.8619 9.92514 25.2527 9.9257 25.6506L9.92598 25.9521C9.94635 25.9521 9.96499 25.9523 9.98236 25.9526C10.0301 25.9532 10.0682 25.9537 10.1063 25.9487L10.1074 25.9485C10.7799 25.8625 11.4523 25.7764 12.1248 25.6869L12.2394 25.6715L12.2394 25.6715L12.2395 25.6715L12.2395 25.6715C12.8432 25.5905 13.4497 25.5091 14.053 25.4217C14.0891 25.4169 14.1435 25.3823 14.1735 25.3478C14.1451 25.3835 14.0892 25.4203 14.0495 25.4252C13.4079 25.5182 12.7663 25.6043 12.1212 25.6904C11.4484 25.78 10.7756 25.8661 10.1027 25.9522C10.0718 25.9566 10.0395 25.9554 10.0004 25.9539ZM19.1961 25.4252V22.8317L19.1964 22.8318V25.4217L19.1983 25.4219L19.2055 25.4229L19.206 25.4229C20.6073 25.6016 22.0087 25.7803 23.4411 25.9624V25.966C22.0053 25.7834 20.6007 25.6043 19.1961 25.4252ZM20.2977 23.2237C19.9555 23.0978 19.6036 22.9741 19.2146 22.8382C19.4216 22.9124 19.6191 22.9824 19.8106 23.0504L19.8111 23.0506C19.977 23.1094 20.1385 23.1667 20.2977 23.2237ZM12.8044 32.0967C12.794 32.076 12.7801 32.0519 12.7663 32.0278L12.824 31.983L12.7676 32.0275L12.7672 32.0278L12.7672 32.0278L12.7672 32.0278C12.7811 32.0519 12.795 32.076 12.8088 32.0966C12.819 32.0979 12.8296 32.101 12.8402 32.1041C12.8536 32.108 12.8669 32.1119 12.879 32.112C12.8624 32.1137 12.8434 32.108 12.8248 32.1024C12.8179 32.1004 12.811 32.0983 12.8044 32.0967ZM13.9203 31.1207C13.9889 31.066 14.0574 31.0113 14.1258 30.9566L14.1283 30.9581L13.9203 31.1207ZM19.1909 30.9911C19.2005 30.985 19.21 30.979 19.2204 30.9738C19.2204 30.9738 19.2204 30.9738 19.2204 30.9739C19.2075 30.9803 19.1958 30.9881 19.1847 30.9955C19.178 31 19.1716 31.0044 19.1651 31.0082C19.1651 31.0719 19.1643 31.136 19.1635 31.2004C19.1615 31.3729 19.1594 31.5472 19.172 31.7177C19.1755 31.7763 19.2691 31.8589 19.335 31.8762C19.3743 31.8871 19.4136 31.8978 19.453 31.9082C19.4124 31.8977 19.3719 31.8871 19.3314 31.8762C19.2655 31.8556 19.1719 31.7763 19.1684 31.7178C19.1558 31.5475 19.1579 31.3755 19.1599 31.2029V31.2029V31.2029V31.2029V31.2029V31.2028V31.2028V31.2028C19.1607 31.138 19.1615 31.0731 19.1615 31.0083C19.1719 31.0031 19.1814 30.9971 19.1909 30.9911ZM19.9237 32.0221C20.0379 32.048 20.1526 32.0728 20.2678 32.0967C20.3134 32.1067 20.3597 32.1078 20.4065 32.1063C20.3601 32.1077 20.3146 32.1065 20.2714 32.0966C20.155 32.0725 20.0391 32.0479 19.9237 32.0221ZM20.5402 32.1002C20.5454 32.1001 20.5505 32.1001 20.5556 32.1001C20.5557 32.1001 20.5557 32.1001 20.5557 32.1C20.5505 32.1001 20.5454 32.1001 20.5402 32.1002Z" fill="url(#paint4_linear)"/>
<defs>
<linearGradient id="paint0_linear" x1="-0.479157" y1="37.0289" x2="-9.73665" y2="-44.6629" gradientUnits="userSpaceOnUse">
<stop offset="0.203125" stop-color="#D91A21"/>
<stop offset="1" stop-color="#6F0000"/>
</linearGradient>
<linearGradient id="paint1_linear" x1="24.2317" y1="15.4365" x2="22.0872" y2="-5.87189" gradientUnits="userSpaceOnUse">
<stop offset="0.203125" stop-color="#D91A21"/>
<stop offset="1" stop-color="#6F0000"/>
</linearGradient>
<linearGradient id="paint2_linear" x1="2.83244" y1="28.0112" x2="-0.287169" y2="20.0986" gradientUnits="userSpaceOnUse">
<stop offset="0.203125" stop-color="#D91A21"/>
<stop offset="1" stop-color="#6F0000"/>
</linearGradient>
<linearGradient id="paint3_linear" x1="2.83537" y1="22.4692" x2="2.45186" y2="19.5118" gradientUnits="userSpaceOnUse">
<stop offset="0.203125" stop-color="#D91A21"/>
<stop offset="1" stop-color="#6F0000"/>
</linearGradient>
<linearGradient id="paint4_linear" x1="8.35771" y1="33.4535" x2="2.08429" y2="-7.25139" gradientUnits="userSpaceOnUse">
<stop offset="0.203125" stop-color="#D91A21"/>
<stop offset="1" stop-color="#6F0000"/>
</linearGradient>
</defs>
</svg>
